# xmcd
#
# Track frame offsets:
#	150
#	17270
#	36430
#	52145
#	69127
#	84435
#	102660
#	123527
#	134952
#	152012
#	171817
#	190705
#	205387
#
# Disc length: 2883 seconds
#
# Revision: 0
# Processed by: cddbd v1.4PL0 Copyright (c) Steve Scherf et al.
# Submitted via: dBpowerAMP V4.0
#
DISCID=b70b410d
DTITLE=Perversa - Ironías de la vida
DYEAR=1996
DGENRE=Soul
TTITLE0=Hoy Me Caso
TTITLE1=Cuando Te Vayas
TTITLE2=Soñando Con Eva
TTITLE3=Cinco Años Antes
TTITLE4=Un Par De Dias
TTITLE5=Ana
TTITLE6=A Veces
TTITLE7=Obnubilado
TTITLE8=Tendencia Nocturna
TTITLE9=Volver
TTITLE10=Cuitas
TTITLE11=Adiós
TTITLE12=Tu Mirar
EXTD=
EXTT0=
EXTT1=
EXTT2=
EXTT3=
EXTT4=
EXTT5=
EXTT6=
EXTT7=
EXTT8=
EXTT9=
EXTT10=
EXTT11=
EXTT12=
PLAYORDER=
